ply
format ascii 1.0
comment Created by Blender 2.80 (sub 75) - www.blender.org, source file: 'red_room.blend'
element vertex 124
property float x
property float y
property float z
property float nx
property float ny
property float nz
property float s
property float t
element face 62
property list uchar uint vertex_indices
end_header
-0.250000 0.281250 0.312500 0.000000 1.000000 0.000000 0.250000 0.312500
-0.250000 0.281250 0.406250 0.000000 1.000000 0.000000 0.250000 0.406250
0.312500 0.281250 0.406250 0.000000 1.000000 0.000000 -0.312500 0.406250
0.312500 0.281250 0.312500 0.000000 1.000000 -0.000000 -0.312500 0.312500
0.312500 0.281250 0.312500 1.000000 -0.000000 0.000000 0.281250 0.312500
0.312500 0.281250 0.406250 1.000000 -0.000000 0.000000 0.281250 0.406250
0.312500 -0.281250 0.406250 1.000000 -0.000000 0.000000 -0.281250 0.406250
0.312500 -0.281250 0.312500 1.000000 -0.000000 0.000000 -0.281250 0.312500
0.312500 -0.281250 0.312500 0.000000 -1.000000 0.000000 0.312500 0.312500
0.312500 -0.281250 0.406250 0.000000 -1.000000 0.000000 0.312500 0.406250
-0.250000 -0.281250 0.406250 0.000000 -1.000000 0.000000 -0.250000 0.406250
-0.250000 -0.281250 0.312500 0.000000 -1.000000 0.000000 -0.250000 0.312500
-0.250000 0.281250 0.312500 0.000000 0.000000 -1.000000 0.250000 0.281250
0.312500 0.281250 0.312500 0.000000 0.000000 -1.000000 -0.312500 0.281250
0.312500 -0.281250 0.312500 0.000000 0.000000 -1.000000 -0.312500 -0.281250
-0.250000 -0.281250 0.312500 0.000000 0.000000 -1.000000 0.250000 -0.281250
0.312500 0.281250 0.406250 0.000000 0.000000 1.000000 0.312500 0.281250
-0.250000 0.281250 0.406250 0.000000 0.000000 1.000000 -0.250000 0.281250
-0.250000 -0.281250 0.406250 0.000000 0.000000 1.000000 -0.250000 -0.281250
0.312500 -0.281250 0.406250 0.000000 -0.000000 1.000000 0.312500 -0.281250
0.156250 -0.281250 0.000000 -1.000000 -0.000000 -0.000000 0.281250 0.000000
0.156250 -0.281250 0.312500 -1.000000 -0.000000 -0.000000 0.281250 0.312500
0.156250 -0.156250 0.312500 -1.000000 -0.000000 -0.000000 0.156250 0.312500
0.156250 -0.156250 0.000000 -1.000000 -0.000000 0.000000 0.156250 0.000000
0.156250 -0.156250 0.000000 0.000000 1.000000 0.000000 -0.156250 0.000000
0.156250 -0.156250 0.312500 0.000000 1.000000 0.000000 -0.156250 0.312500
0.281250 -0.156250 0.312500 0.000000 1.000000 0.000000 -0.281250 0.312500
0.281250 -0.156250 0.000000 0.000000 1.000000 -0.000000 -0.281250 0.000000
0.281250 -0.156250 0.000000 1.000000 -0.000000 0.000000 -0.156250 0.000000
0.281250 -0.156250 0.312500 1.000000 -0.000000 0.000000 -0.156250 0.312500
0.281250 -0.281250 0.312500 1.000000 -0.000000 0.000000 -0.281250 0.312500
0.281250 -0.281250 0.000000 1.000000 -0.000000 0.000000 -0.281250 0.000000
0.281250 -0.281250 0.000000 0.000000 -1.000000 0.000000 0.281250 0.000000
0.281250 -0.281250 0.312500 0.000000 -1.000000 0.000000 0.281250 0.312500
0.156250 -0.281250 0.312500 0.000000 -1.000000 0.000000 0.156250 0.312500
0.156250 -0.281250 0.000000 0.000000 -1.000000 0.000000 0.156250 0.000000
0.156250 -0.156250 0.000000 0.000000 0.000000 -1.000000 -0.156250 -0.156250
0.281250 -0.156250 0.000000 0.000000 0.000000 -1.000000 -0.281250 -0.156250
0.281250 -0.281250 0.000000 0.000000 0.000000 -1.000000 -0.281250 -0.281250
0.156250 -0.281250 0.000000 0.000000 0.000000 -1.000000 -0.156250 -0.281250
0.156250 0.156250 0.000000 -1.000000 -0.000000 -0.000000 -0.156250 0.000000
0.156250 0.156250 0.312500 -1.000000 -0.000000 -0.000000 -0.156250 0.312500
0.156250 0.281250 0.312500 -1.000000 -0.000000 -0.000000 -0.281250 0.312500
0.156250 0.281250 0.000000 -1.000000 -0.000000 0.000000 -0.281250 0.000000
0.156250 0.281250 0.000000 0.000000 1.000000 0.000000 -0.156250 0.000000
0.156250 0.281250 0.312500 0.000000 1.000000 0.000000 -0.156250 0.312500
0.281250 0.281250 0.312500 0.000000 1.000000 0.000000 -0.281250 0.312500
0.281250 0.281250 0.000000 0.000000 1.000000 -0.000000 -0.281250 0.000000
0.281250 0.281250 0.000000 1.000000 -0.000000 0.000000 0.281250 0.000000
0.281250 0.281250 0.312500 1.000000 -0.000000 0.000000 0.281250 0.312500
0.281250 0.156250 0.312500 1.000000 -0.000000 0.000000 0.156250 0.312500
0.281250 0.156250 0.000000 1.000000 -0.000000 0.000000 0.156250 0.000000
0.281250 0.156250 0.000000 0.000000 -1.000000 0.000000 0.281250 0.000000
0.281250 0.156250 0.312500 0.000000 -1.000000 0.000000 0.281250 0.312500
0.156250 0.156250 0.312500 0.000000 -1.000000 0.000000 0.156250 0.312500
0.156250 0.156250 0.000000 0.000000 -1.000000 0.000000 0.156250 0.000000
0.156250 0.281250 0.000000 0.000000 0.000000 -1.000000 -0.156250 0.281250
0.281250 0.281250 0.000000 0.000000 0.000000 -1.000000 -0.281250 0.281250
0.281250 0.156250 0.000000 0.000000 0.000000 -1.000000 -0.281250 0.156250
0.156250 0.156250 0.000000 0.000000 0.000000 -1.000000 -0.156250 0.156250
-0.281250 -0.281250 0.000000 -1.000000 -0.000000 -0.000000 0.281250 0.000000
-0.281250 -0.281250 0.312500 -1.000000 -0.000000 -0.000000 0.281250 0.312500
-0.281250 -0.156250 0.312500 -1.000000 -0.000000 -0.000000 0.156250 0.312500
-0.281250 -0.156250 0.000000 -1.000000 -0.000000 0.000000 0.156250 0.000000
-0.281250 -0.156250 0.000000 0.000000 1.000000 0.000000 0.281250 0.000000
-0.281250 -0.156250 0.312500 0.000000 1.000000 0.000000 0.281250 0.312500
-0.156250 -0.156250 0.312500 0.000000 1.000000 0.000000 0.156250 0.312500
-0.156250 -0.156250 0.000000 0.000000 1.000000 -0.000000 0.156250 0.000000
-0.156250 -0.156250 0.000000 1.000000 -0.000000 0.000000 -0.156250 0.000000
-0.156250 -0.156250 0.312500 1.000000 -0.000000 0.000000 -0.156250 0.312500
-0.156250 -0.281250 0.312500 1.000000 -0.000000 0.000000 -0.281250 0.312500
-0.156250 -0.281250 0.000000 1.000000 -0.000000 0.000000 -0.281250 0.000000
-0.156250 -0.281250 0.000000 0.000000 -1.000000 0.000000 -0.156250 0.000000
-0.156250 -0.281250 0.312500 0.000000 -1.000000 0.000000 -0.156250 0.312500
-0.281250 -0.281250 0.312500 0.000000 -1.000000 0.000000 -0.281250 0.312500
-0.281250 -0.281250 0.000000 0.000000 -1.000000 0.000000 -0.281250 0.000000
-0.281250 -0.156250 0.000000 0.000000 0.000000 -1.000000 0.281250 -0.156250
-0.156250 -0.156250 0.000000 0.000000 0.000000 -1.000000 0.156250 -0.156250
-0.156250 -0.281250 0.000000 0.000000 0.000000 -1.000000 0.156250 -0.281250
-0.281250 -0.281250 0.000000 0.000000 0.000000 -1.000000 0.281250 -0.281250
-0.281250 0.156250 0.000000 -1.000000 -0.000000 -0.000000 -0.156250 0.000000
-0.281250 0.156250 0.312500 -1.000000 -0.000000 -0.000000 -0.156250 0.312500
-0.281250 0.281250 0.312500 -1.000000 -0.000000 -0.000000 -0.281250 0.312500
-0.281250 0.281250 0.000000 -1.000000 -0.000000 0.000000 -0.281250 0.000000
-0.281250 0.281250 0.000000 0.000000 1.000000 0.000000 0.281250 0.000000
-0.281250 0.281250 0.312500 0.000000 1.000000 0.000000 0.281250 0.312500
-0.156250 0.281250 0.312500 0.000000 1.000000 0.000000 0.156250 0.312500
-0.156250 0.281250 0.000000 0.000000 1.000000 -0.000000 0.156250 0.000000
-0.156250 0.281250 0.000000 1.000000 -0.000000 0.000000 0.281250 0.000000
-0.156250 0.281250 0.312500 1.000000 -0.000000 0.000000 0.281250 0.312500
-0.156250 0.156250 0.312500 1.000000 -0.000000 0.000000 0.156250 0.312500
-0.156250 0.156250 0.000000 1.000000 -0.000000 0.000000 0.156250 0.000000
-0.156250 0.156250 0.000000 0.000000 -1.000000 0.000000 -0.156250 0.000000
-0.156250 0.156250 0.312500 0.000000 -1.000000 0.000000 -0.156250 0.312500
-0.281250 0.156250 0.312500 0.000000 -1.000000 0.000000 -0.281250 0.312500
-0.281250 0.156250 0.000000 0.000000 -1.000000 0.000000 -0.281250 0.000000
-0.281250 0.281250 0.000000 0.000000 0.000000 -1.000000 0.281250 0.281250
-0.156250 0.281250 0.000000 0.000000 0.000000 -1.000000 0.156250 0.281250
-0.156250 0.156250 0.000000 0.000000 0.000000 -1.000000 0.156250 0.156250
-0.281250 0.156250 0.000000 0.000000 0.000000 -1.000000 0.281250 0.156250
-0.312500 -0.281250 0.312500 -1.000000 -0.000000 -0.000000 0.281250 0.312500
-0.312500 -0.281250 1.093750 -1.000000 -0.000000 -0.000000 0.281250 1.093750
-0.312500 0.281250 1.093750 -1.000000 -0.000000 -0.000000 -0.281250 1.093750
-0.312500 0.281250 0.312500 -1.000000 -0.000000 0.000000 -0.281250 0.312500
-0.312500 0.281250 0.312500 0.000000 1.000000 0.000000 0.312500 0.312500
-0.312500 0.281250 1.093750 0.000000 1.000000 0.000000 0.312500 1.093750
-0.250000 0.281250 1.093750 0.000000 1.000000 0.000000 0.250000 1.093750
-0.250000 0.281250 0.312500 0.000000 1.000000 -0.000000 0.250000 0.312500
-0.250000 0.281250 0.312500 1.000000 -0.000000 0.000000 0.281250 0.312500
-0.250000 0.281250 1.093750 1.000000 -0.000000 0.000000 0.281250 1.093750
-0.250000 -0.281250 1.093750 1.000000 -0.000000 0.000000 -0.281250 1.093750
-0.250000 -0.281250 0.312500 1.000000 -0.000000 0.000000 -0.281250 0.312500
-0.250000 -0.281250 0.312500 0.000000 -1.000000 0.000000 -0.250000 0.312500
-0.250000 -0.281250 1.093750 0.000000 -1.000000 0.000000 -0.250000 1.093750
-0.312500 -0.281250 1.093750 0.000000 -1.000000 0.000000 -0.312500 1.093750
-0.312500 -0.281250 0.312500 0.000000 -1.000000 0.000000 -0.312500 0.312500
-0.312500 0.281250 0.312500 0.000000 0.000000 -1.000000 0.312500 0.281250
-0.250000 0.281250 0.312500 0.000000 0.000000 -1.000000 0.250000 0.281250
-0.250000 -0.281250 0.312500 0.000000 0.000000 -1.000000 0.250000 -0.281250
-0.312500 -0.281250 0.312500 0.000000 0.000000 -1.000000 0.312500 -0.281250
-0.250000 0.281250 1.093750 0.000000 0.000000 1.000000 -0.250000 0.281250
-0.312500 0.281250 1.093750 0.000000 0.000000 1.000000 -0.312500 0.281250
-0.312500 -0.281250 1.093750 0.000000 0.000000 1.000000 -0.312500 -0.281250
-0.250000 -0.281250 1.093750 0.000000 -0.000000 1.000000 -0.250000 -0.281250
3 0 1 2
3 0 2 3
3 4 5 6
3 4 6 7
3 8 9 10
3 8 10 11
3 12 13 14
3 12 14 15
3 16 17 18
3 16 18 19
3 20 21 22
3 20 22 23
3 24 25 26
3 24 26 27
3 28 29 30
3 28 30 31
3 32 33 34
3 32 34 35
3 36 37 38
3 36 38 39
3 40 41 42
3 40 42 43
3 44 45 46
3 44 46 47
3 48 49 50
3 48 50 51
3 52 53 54
3 52 54 55
3 56 57 58
3 56 58 59
3 60 61 62
3 60 62 63
3 64 65 66
3 64 66 67
3 68 69 70
3 68 70 71
3 72 73 74
3 72 74 75
3 76 77 78
3 76 78 79
3 80 81 82
3 80 82 83
3 84 85 86
3 84 86 87
3 88 89 90
3 88 90 91
3 92 93 94
3 92 94 95
3 96 97 98
3 96 98 99
3 100 101 102
3 100 102 103
3 104 105 106
3 104 106 107
3 108 109 110
3 108 110 111
3 112 113 114
3 112 114 115
3 116 117 118
3 116 118 119
3 120 121 122
3 120 122 123
